<svg width="30" height="30" viewBox="0 0 30 30" fill="none" xmlns="http://www.w3.org/2000/svg">
<g clip-path="url(#clip0_50_745)">
<path d="M23.7833 10.8332H6.21663C5.99562 10.8332 5.78366 10.7454 5.62738 10.5891C5.4711 10.4328 5.3833 10.2209 5.3833 9.99984C5.3833 9.77882 5.4711 9.56686 5.62738 9.41058C5.78366 9.2543 5.99562 9.1665 6.21663 9.1665H23.7833C24.0043 9.1665 24.2163 9.2543 24.3726 9.41058C24.5288 9.56686 24.6166 9.77882 24.6166 9.99984C24.6166 10.2209 24.5288 10.4328 24.3726 10.5891C24.2163 10.7454 24.0043 10.8332 23.7833 10.8332Z" fill="#4A4A4A"/>
<path d="M17.6416 15.8332H6.21663C5.99562 15.8332 5.78366 15.7454 5.62738 15.5891C5.4711 15.4328 5.3833 15.2209 5.3833 14.9998C5.3833 14.7788 5.4711 14.5669 5.62738 14.4106C5.78366 14.2543 5.99562 14.1665 6.21663 14.1665H17.6416C17.8626 14.1665 18.0746 14.2543 18.2309 14.4106C18.3872 14.5669 18.475 14.7788 18.475 14.9998C18.475 15.2209 18.3872 15.4328 18.2309 15.5891C18.0746 15.7454 17.8626 15.8332 17.6416 15.8332Z" fill="#4A4A4A"/>
<path d="M11.45 20.8332H6.21663C5.99562 20.8332 5.78366 20.7454 5.62738 20.5891C5.4711 20.4328 5.3833 20.2209 5.3833 19.9998C5.3833 19.7788 5.4711 19.5669 5.62738 19.4106C5.78366 19.2543 5.99562 19.1665 6.21663 19.1665H11.45C11.671 19.1665 11.8829 19.2543 12.0392 19.4106C12.1955 19.5669 12.2833 19.7788 12.2833 19.9998C12.2833 20.2209 12.1955 20.4328 12.0392 20.5891C11.8829 20.7454 11.671 20.8332 11.45 20.8332Z" fill="#4A4A4A"/>
</g>
<defs>
<clipPath id="clip0_50_745">
<rect width="30" height="30" rx="15" fill="white"/>
</clipPath>
</defs>
</svg>
