<svg width="20" height="20" viewBox="0 0 20 20" fill="none" xmlns="http://www.w3.org/2000/svg">
<g clip-path="url(#clip0_50_571)">
<path d="M6.96721 0.657779C4.9689 1.35101 3.24556 2.66679 2.05032 4.41184C0.855082 6.1569 0.250946 8.23925 0.326651 10.353C0.402355 12.4668 1.15391 14.5006 2.47092 16.1557C3.78794 17.8108 5.60099 18.9999 7.64377 19.5484C9.2999 19.9757 11.035 19.9945 12.7 19.6031C14.2083 19.2643 15.6028 18.5396 16.7469 17.5C17.9376 16.3849 18.802 14.9663 19.2469 13.3968C19.7305 11.6901 19.8166 9.89517 19.4985 8.14997H10.1985V12.0078H15.5844C15.4768 12.6231 15.2461 13.2103 14.9062 13.7344C14.5663 14.2585 14.1242 14.7086 13.6063 15.0578C12.9486 15.4928 12.2072 15.7855 11.4297 15.9172C10.6499 16.0621 9.85011 16.0621 9.07033 15.9172C8.28 15.7538 7.53236 15.4276 6.87502 14.9593C5.819 14.2118 5.02608 13.1498 4.6094 11.925C4.18567 10.6771 4.18567 9.32435 4.6094 8.07653C4.906 7.20187 5.39632 6.40549 6.04377 5.74684C6.7847 4.97926 7.72273 4.43059 8.75495 4.16102C9.78718 3.89146 10.8737 3.91142 11.8953 4.21872C12.6934 4.4637 13.4232 4.89174 14.0266 5.46872C14.6339 4.86455 15.2401 4.25882 15.8453 3.65153C16.1578 3.32497 16.4985 3.01403 16.8063 2.67965C15.8853 1.82259 14.8042 1.15568 13.625 0.717154C11.4777 -0.0625493 9.12811 -0.0835031 6.96721 0.657779Z" fill="white"/>
<path d="M6.96721 0.65805C9.12794 -0.0837359 11.4775 -0.0633337 13.625 0.715863C14.8044 1.15737 15.885 1.82748 16.8047 2.68774C16.4922 3.02211 16.1625 3.33461 15.8438 3.65961C15.2375 4.26482 14.6318 4.86795 14.0266 5.46899C13.4232 4.89201 12.6934 4.46397 11.8953 4.21899C10.874 3.91061 9.78755 3.8895 8.75505 4.15796C7.72256 4.42642 6.78395 4.97408 6.04221 5.74086C5.39476 6.39951 4.90444 7.19589 4.60784 8.07055L1.36877 5.56274C2.52816 3.26361 4.53557 1.50496 6.96721 0.65805Z" fill="#A44A3F"/>
<path d="M0.509419 8.04688C0.683515 7.18405 0.97255 6.34848 1.36879 5.5625L4.60786 8.07656C4.18413 9.32438 4.18413 10.6772 4.60786 11.925C3.52869 12.7583 2.449 13.5958 1.36879 14.4375C0.376842 12.463 0.0743142 10.2133 0.509419 8.04688Z" fill="#C49A3B"/>
<path d="M1.36719 14.4373C2.4474 13.604 3.52708 12.7665 4.60625 11.9248C5.02376 13.1501 5.81782 14.2121 6.875 14.9592C7.53439 15.4252 8.28364 15.7488 9.075 15.9092C9.85478 16.0542 10.6546 16.0542 11.4344 15.9092C12.2119 15.7776 12.9533 15.4849 13.6109 15.0498C14.6563 15.8654 15.7062 16.6748 16.7516 17.4904C15.6076 18.5306 14.2132 19.2559 12.7047 19.5951C11.0397 19.9865 9.30457 19.9678 7.64844 19.5404C6.3386 19.1907 5.11512 18.5742 4.05469 17.7295C2.93228 16.8384 2.01556 15.7154 1.36719 14.4373Z" fill="#5B8F64"/>
</g>
<defs>
<clipPath id="clip0_50_571">
<rect width="20" height="20" fill="white"/>
</clipPath>
</defs>
</svg>
