<svg width="26" height="36" viewBox="0 0 26 36" fill="none" xmlns="http://www.w3.org/2000/svg">
<path d="M13 0C9.55219 0 6.24558 1.18526 3.80761 3.29505C1.36964 5.40483 0 8.26631 0 11.25C0 22.5 13 36 13 36C13 36 26 22.5 26 11.25C26 8.26631 24.6304 5.40483 22.1924 3.29505C19.7544 1.18526 16.4478 0 13 0ZM13 18C10.9313 18 8.94735 17.2888 7.48457 16.023C6.02178 14.7571 5.2 13.0402 5.2 11.25C5.2 9.45979 6.02178 7.7429 7.48457 6.47703C8.94735 5.21116 10.9313 4.5 13 4.5C15.0687 4.5 17.0526 5.21116 18.5154 6.47703C19.9782 7.7429 20.8 9.45979 20.8 11.25C20.8 13.0402 19.9782 14.7571 18.5154 16.023C17.0526 17.2888 15.0687 18 13 18Z" fill="#4A4A4A"/>
</svg>
