<svg width="30" height="28" viewBox="0 0 30 28" fill="none" xmlns="http://www.w3.org/2000/svg">
<path d="M2.55733 24.8342V7.58086L0.14656 2.27822C-0.0348952 1.8825 -0.0478565 1.47992 0.107677 1.07048C0.26321 0.66104 0.535394 0.364514 0.924227 0.1809C1.31306 -0.00271355 1.70863 -0.0222356 2.11095 0.122334C2.51326 0.266904 2.80463 0.537048 2.98504 0.932768L5.97906 7.50172H24.0209L27.015 0.932768C27.1964 0.537048 27.4883 0.260044 27.8906 0.101757C28.2929 -0.0565314 28.688 -0.0301501 29.0758 0.1809C29.4646 0.36557 29.7368 0.662623 29.8923 1.07206C30.0479 1.4815 30.0349 1.88355 29.8534 2.27822L27.4427 7.58086V24.8342C27.4427 25.7048 27.1383 26.4504 26.5297 27.0708C25.921 27.6913 25.1885 28.0011 24.332 28H5.668C4.81256 28 4.08052 27.6903 3.47186 27.0708C2.86321 26.4514 2.55836 25.7059 2.55733 24.8342ZM11.8893 16.9198H18.1107C18.5513 16.9198 18.921 16.7679 19.2196 16.464C19.5182 16.1601 19.667 15.7844 19.666 15.337C19.665 14.8895 19.5157 14.5139 19.2181 14.21C18.9205 13.906 18.5513 13.7541 18.1107 13.7541H11.8893C11.4487 13.7541 11.0795 13.906 10.7819 14.21C10.4843 14.5139 10.335 14.8895 10.334 15.337C10.333 15.7844 10.4823 16.1606 10.7819 16.4656C11.0816 16.7705 11.4507 16.922 11.8893 16.9198Z" fill="#4A4A4A"/>
</svg>
