<svg width="30" height="36" viewBox="0 0 30 36" fill="none" xmlns="http://www.w3.org/2000/svg">
<path d="M15 27.4286C15.9946 27.4286 16.9484 27.0673 17.6516 26.4244C18.3549 25.7814 18.75 24.9093 18.75 24C18.75 23.0907 18.3549 22.2186 17.6516 21.5756C16.9484 20.9327 15.9946 20.5714 15 20.5714C14.0054 20.5714 13.0516 20.9327 12.3484 21.5756C11.6451 22.2186 11.25 23.0907 11.25 24C11.25 24.9093 11.6451 25.7814 12.3484 26.4244C13.0516 27.0673 14.0054 27.4286 15 27.4286ZM26.25 12C27.2446 12 28.1984 12.3612 28.9016 13.0042C29.6049 13.6472 30 14.5193 30 15.4286V32.5714C30 33.4807 29.6049 34.3528 28.9016 34.9958C28.1984 35.6388 27.2446 36 26.25 36H3.75C2.75544 36 1.80161 35.6388 1.09835 34.9958C0.395088 34.3528 0 33.4807 0 32.5714V15.4286C0 14.5193 0.395088 13.6472 1.09835 13.0042C1.80161 12.3612 2.75544 12 3.75 12H5.625V8.57143C5.625 6.29814 6.61272 4.11797 8.37087 2.51051C10.129 0.903059 12.5136 0 15 0C16.2311 0 17.4502 0.221707 18.5877 0.652461C19.7251 1.08322 20.7586 1.71458 21.6291 2.51051C22.4997 3.30644 23.1902 4.25135 23.6614 5.29128C24.1325 6.33122 24.375 7.44581 24.375 8.57143V12H26.25ZM15 3.42857C13.5082 3.42857 12.0774 3.97041 11.0225 4.93488C9.96763 5.89935 9.375 7.20746 9.375 8.57143V12H20.625V8.57143C20.625 7.20746 20.0324 5.89935 18.9775 4.93488C17.9226 3.97041 16.4918 3.42857 15 3.42857Z" fill="#4A4A4A"/>
</svg>
