<svg width="30" height="29" viewBox="0 0 30 29" fill="none" xmlns="http://www.w3.org/2000/svg">
<path d="M15 0C13.0302 0 11.0796 0.384365 9.25975 1.13115C7.43986 1.87793 5.78628 2.97251 4.3934 4.35239C1.58035 7.13918 0 10.9189 0 14.86C0 21.4281 4.305 27.0006 10.26 28.977C11.01 29.0959 11.25 28.6352 11.25 28.234V25.7226C7.095 26.6142 6.21 23.7314 6.21 23.7314C5.52 22.0076 4.545 21.547 4.545 21.547C3.18 20.6257 4.65 20.6554 4.65 20.6554C6.15 20.7594 6.945 22.186 6.945 22.186C8.25 24.4447 10.455 23.776 11.31 23.4193C11.445 22.4534 11.835 21.7996 12.255 21.4281C8.925 21.0566 5.43 19.7786 5.43 14.117C5.43 12.4675 6 11.145 6.975 10.0899C6.825 9.71843 6.3 8.173 7.125 6.1669C7.125 6.1669 8.385 5.76568 11.25 7.68262C12.435 7.3557 13.725 7.19224 15 7.19224C16.275 7.19224 17.565 7.3557 18.75 7.68262C21.615 5.76568 22.875 6.1669 22.875 6.1669C23.7 8.173 23.175 9.71843 23.025 10.0899C24 11.145 24.57 12.4675 24.57 14.117C24.57 19.7935 21.06 21.0417 17.715 21.4132C18.255 21.8739 18.75 22.7804 18.75 24.1623V28.234C18.75 28.6352 18.99 29.1107 19.755 28.977C25.71 26.9857 30 21.4281 30 14.86C30 12.9085 29.612 10.9762 28.8582 9.17332C28.1044 7.37042 26.9995 5.73227 25.6066 4.35239C24.2137 2.97251 22.5601 1.87793 20.7403 1.13115C18.9204 0.384365 16.9698 0 15 0Z" fill="white"/>
</svg>
